<?xml version="1.0" encoding="UTF-8"?>
<svg viewBox="0 0 180 36" version="1.1" xmlns="http://www.w3.org/2000/svg" xmlns:xlink="http://www.w3.org/1999/xlink">
    <defs>
        <linearGradient x1="0%" y1="64.3876627%" x2="100%" y2="64.3876627%" id="linearGradient-1">
            <stop stop-color="#E2497E" offset="0%"></stop>
            <stop stop-color="#4E5BEE" offset="100%"></stop>
        </linearGradient>
    </defs>
    <g id="Artboard" stroke="none" stroke-width="1" fill="none" fill-rule="evenodd">
        <g id="Group-2" transform="translate(0.000000, 1.000000)" fill="url(#linearGradient-1)" fill-rule="nonzero">
            <path d="M11.1,4.3 C15.2,2.3 20.2,4.1 22.1,8.2 L30.1,25.2 C30.5,26.1 31.4,26.7 32.4,26.7 C33.9,26.7 35,25.5 35,24.1 L35,13.7 C35,11.8 36.5,10.3 38.4,10.3 C40.3,10.3 41.8,11.8 41.8,13.7 L41.8,23.8 C41.8,27.4 39.7,30.7 36.5,32.2 C31.8,34.4 26.3,32.4 24.1,27.8 L16.1,10.8 C16,10.5 15.7,10.2 15.4,10.1 C14.7,9.7 13.8,10.1 13.4,10.8 L6.8,24.9 C6.7,25.1 6.7,25.2 6.7,25.4 C6.7,26 7.2,26.5 7.8,26.5 L18.5,26.5 L18.6886259,26.5049593 C20.4983333,26.6004444 21.9,28.0633333 21.9,29.9 C21.9,31.8 20.4,33.3 18.5,33.3 L7.8,33.3 C3.5,33.3 0,29.8 0,25.5 L0.0089,25.1673 C0.062,24.162 0.35,23.1 0.8,22.2 L7.4,8.2 C8.2,6.5 9.6,5.1 11.1,4.3 Z M38.6,0 C39.8,0 41,0.6 41.7,1.6 C41.8,1.9 41.9,2.1 42,2.3 C42.1,2.5 42.2,2.8 42.2,3 C42.3,3.5 42.3,4 42.2,4.5 C42.2,4.7 42.1,5 42,5.2 C42,5.5 41.8,5.7 41.7,5.9 C41.5,6.1 41.4,6.3 41.2,6.5 C39.7,8 37.4,8 35.9,6.5 C35.7,6.3 35.5,6.1 35.4,5.9 C35.3,5.6 35.2,5.4 35.1,5.2 C35,5 34.9,4.7 34.9,4.5 C34.8,4 34.8,3.5 34.9,3 C34.9,2.8 35,2.6 35.1,2.4 C35.1,2.1 35.3,1.9 35.4,1.7 C35.6,1.5 35.7,1.3 35.9,1.1 C36.6,0.4 37.6,0 38.6,0 Z" id="Combined-Shape"></path>
        </g>
        <g id="CUBISM" transform="translate(50.236816, 9.628906)" fill="#FFFFFF" fill-rule="nonzero">
            <path d="M11.4052734,24.7861328 C9.07552083,24.7861328 7.05566406,24.2880859 5.34570312,23.2919922 C3.63574219,22.2958984 2.31730143,20.8723145 1.39038086,19.0212402 C0.463460286,17.170166 0,14.9580078 0,12.3847656 L0,12.3681641 C0,9.79492188 0.46484375,7.5855306 1.39453125,5.73999023 C2.32421875,3.89444987 3.64265951,2.47639974 5.34985352,1.48583984 C7.05704753,0.495279948 9.07552083,0 11.4052734,0 C13.3476562,0 15.0756022,0.376302083 16.5891113,1.12890625 C18.1026204,1.88151042 19.3200684,2.91495768 20.2414551,4.22924805 C21.1628418,5.54353841 21.6982422,7.05013021 21.8476562,8.74902344 L21.8642578,8.90673828 L16.9833984,8.90673828 L16.9169922,8.62451172 C16.7288411,7.73909505 16.391276,6.96988932 15.9042969,6.31689453 C15.4173177,5.66389974 14.7961426,5.15616862 14.0407715,4.79370117 C13.2854004,4.43123372 12.406901,4.25 11.4052734,4.25 C10.1269531,4.25 9.01741536,4.57788086 8.07666016,5.23364258 C7.13590495,5.8894043 6.40820312,6.82185872 5.89355469,8.03100586 C5.37890625,9.24015299 5.12158203,10.6831055 5.12158203,12.3598633 L5.12158203,12.3764648 C5.12158203,14.0532227 5.37890625,15.5030924 5.89355469,16.7260742 C6.40820312,17.949056 7.13867188,18.8898112 8.08496094,19.5483398 C9.03125,20.2068685 10.1407878,20.5361328 11.4135742,20.5361328 C12.3764648,20.5361328 13.2355957,20.3590495 13.9909668,20.0048828 C14.7463379,19.6507161 15.3785807,19.1388346 15.8876953,18.4692383 C16.3968099,17.7996419 16.7565104,16.9916992 16.9667969,16.0454102 L17,15.8793945 L21.8808594,15.8793945 L21.8642578,16.0537109 C21.7148438,17.7526042 21.1766764,19.259196 20.2497559,20.5734863 C19.3228353,21.8877767 18.101237,22.918457 16.5849609,23.6655273 C15.0686849,24.4125977 13.3421224,24.7861328 11.4052734,24.7861328 Z" id="Path"></path>
            <path d="M35.3862305,24.7861328 C33.3442383,24.7861328 31.5720215,24.416748 30.0695801,23.6779785 C28.5671387,22.939209 27.4050293,21.9029948 26.583252,20.5693359 C25.7614746,19.2356771 25.3505859,17.6806641 25.3505859,15.9042969 L25.3505859,0.415039062 L30.3642578,0.415039062 L30.3642578,15.4560547 C30.3642578,16.4908854 30.5607096,17.3873698 30.9536133,18.1455078 C31.3465169,18.9036458 31.9165039,19.4916178 32.6635742,19.9094238 C33.4106445,20.3272298 34.3209635,20.5361328 35.3945312,20.5361328 C36.468099,20.5361328 37.378418,20.3272298 38.1254883,19.9094238 C38.8725586,19.4916178 39.4397786,18.9036458 39.8271484,18.1455078 C40.2145182,17.3873698 40.4082031,16.4908854 40.4082031,15.4560547 L40.4082031,0.415039062 L45.421875,0.415039062 L45.421875,15.9042969 C45.421875,17.6751302 45.0137533,19.2273763 44.1975098,20.5610352 C43.3812663,21.894694 42.2233073,22.9322917 40.7236328,23.6738281 C39.2239583,24.4153646 37.4448242,24.7861328 35.3862305,24.7861328 Z" id="Path"></path>
            <path d="M52.2949219,24.3710938 L52.2949219,20.644043 L59.1098633,20.644043 C60.5486654,20.644043 61.6499023,20.3535156 62.4135742,19.7724609 C63.1772461,19.1914062 63.559082,18.3474935 63.559082,17.2407227 L63.559082,17.2075195 C63.559082,16.4715169 63.3833822,15.8517253 63.0319824,15.3481445 C62.6805827,14.8445638 62.1590169,14.4654948 61.4672852,14.2109375 C60.7755534,13.9563802 59.917806,13.8291016 58.894043,13.8291016 L52.2949219,13.8291016 L52.2949219,10.4257812 L58.3046875,10.4257812 C59.7158203,10.4257812 60.7907715,10.1421712 61.529541,9.57495117 C62.2683105,9.00773112 62.6376953,8.20670573 62.6376953,7.171875 L62.6376953,7.13867188 C62.6376953,6.18684896 62.3111979,5.44946289 61.6582031,4.92651367 C61.0052083,4.40356445 60.0921224,4.14208984 58.9189453,4.14208984 L52.2949219,4.14208984 L52.2949219,0.415039062 L60.2138672,0.415039062 C61.7246094,0.415039062 63.0292155,0.659912109 64.1276855,1.1496582 C65.2261556,1.6394043 66.0742188,2.33390299 66.671875,3.2331543 C67.2695312,4.1324056 67.5683594,5.19628906 67.5683594,6.42480469 L67.5683594,6.45800781 C67.5683594,7.33789062 67.3663737,8.15136719 66.9624023,8.8984375 C66.558431,9.64550781 66.006429,10.2652995 65.3063965,10.7578125 C64.6063639,11.2503255 63.8164062,11.5574544 62.9365234,11.6791992 L62.9365234,11.7788086 C64.0488281,11.8562826 65.0380046,12.1523438 65.9040527,12.6669922 C66.7701009,13.1816406 67.4493815,13.8567708 67.9418945,14.6923828 C68.4344076,15.5279948 68.6806641,16.4715169 68.6806641,17.5229492 L68.6806641,17.5561523 C68.6806641,18.9506836 68.3444824,20.1570638 67.6721191,21.175293 C66.9997559,22.1935221 66.0465495,22.9807129 64.8125,23.5368652 C63.5784505,24.0930176 62.1064453,24.3710938 60.3964844,24.3710938 L52.2949219,24.3710938 Z M49.7880859,24.3710938 L49.7880859,0.415039062 L54.8017578,0.415039062 L54.8017578,24.3710938 L49.7880859,24.3710938 Z" id="Shape"></path>
            <polygon id="Path" points="71.9179688 24.3710938 71.9179688 0.415039062 76.9316406 0.415039062 76.9316406 24.3710938"></polygon>
            <path d="M90.046875,24.7861328 C88.148763,24.7861328 86.4941406,24.5080566 85.0830078,23.9519043 C83.671875,23.395752 82.5623372,22.5933431 81.7543945,21.5446777 C80.9464518,20.4960124 80.4954427,19.238444 80.4013672,17.7719727 L80.3847656,17.4980469 L85.1162109,17.4980469 L85.1494141,17.6889648 C85.2600911,18.3032227 85.5395508,18.8358561 85.987793,19.2868652 C86.4360352,19.7378743 87.0184733,20.0878906 87.7351074,20.3369141 C88.4517415,20.5859375 89.2638346,20.7104492 90.1713867,20.7104492 C91.1010742,20.7104492 91.9020996,20.584554 92.5744629,20.3327637 C93.2468262,20.0809733 93.7670085,19.7254232 94.1350098,19.2661133 C94.5030111,18.8068034 94.6870117,18.2727865 94.6870117,17.6640625 L94.6870117,17.6474609 C94.6870117,16.8395182 94.3688151,16.2058919 93.7324219,15.746582 C93.0960286,15.2872721 92.0335286,14.9054362 90.5449219,14.6010742 L88.0131836,14.0947266 C85.6557617,13.624349 83.8793945,12.8233236 82.684082,11.6916504 C81.4887695,10.5599772 80.8911133,9.0921224 80.8911133,7.28808594 L80.8911133,7.27148438 C80.8966471,5.81054688 81.2909342,4.53637695 82.0739746,3.44897461 C82.857015,2.36157227 83.9361165,1.51489258 85.3112793,0.908935547 C86.6864421,0.302978516 88.2566732,0 90.0219727,0 C91.8702799,0 93.4667969,0.28914388 94.8115234,0.867431641 C96.15625,1.4457194 97.2062988,2.25919596 97.9616699,3.30786133 C98.717041,4.35652669 99.1334635,5.58089193 99.2109375,6.98095703 L99.2275391,7.28808594 L94.4960938,7.28808594 L94.4711914,7.08886719 C94.3881836,6.45800781 94.1516113,5.91984049 93.7614746,5.47436523 C93.3713379,5.02888997 92.8580729,4.68440755 92.2216797,4.44091797 C91.5852865,4.19742839 90.8520508,4.07568359 90.0219727,4.07568359 C89.1697591,4.07568359 88.43514,4.19881185 87.8181152,4.44506836 C87.2010905,4.69132487 86.727946,5.0316569 86.3986816,5.46606445 C86.0694173,5.90047201 85.9047852,6.40266927 85.9047852,6.97265625 L85.9047852,6.98925781 C85.9047852,7.74739583 86.2257487,8.35750326 86.8676758,8.81958008 C87.5096029,9.2816569 88.5195312,9.65380859 89.8974609,9.93603516 L92.4291992,10.4423828 C94.105957,10.7744141 95.4797363,11.233724 96.5505371,11.8203125 C97.6213379,12.406901 98.4140625,13.1456706 98.9287109,14.0366211 C99.4433594,14.9275716 99.7006836,16.0011393 99.7006836,17.2573242 L99.7006836,17.2739258 C99.7006836,18.8068034 99.3160807,20.1363118 98.546875,21.2624512 C97.7776693,22.3885905 96.6722819,23.2574056 95.2307129,23.8688965 C93.7891439,24.4803874 92.0611979,24.7861328 90.046875,24.7861328 Z" id="Path"></path>
            <polygon id="Path" points="103.137207 24.3710938 103.137207 0.415039062 108.931152 0.415039062 115.729492 17.6391602 115.837402 17.6391602 122.635742 0.415039062 128.429688 0.415039062 128.429688 24.3710938 123.963867 24.3710938 123.963867 8.17626953 121.647949 8.17626953 126.661621 1.07910156 117.356445 24.3710938 114.210449 24.3710938 104.905273 1.07910156 109.918945 8.17626953 107.603027 8.17626953 107.603027 24.3710938"></polygon>
        </g>
    </g>
</svg>